<svg width="188" height="50" viewBox="0 0 188 50" fill="none" xmlns="http://www.w3.org/2000/svg">
<path d="M0 0H128V50H0V0Z" fill="#00AFDB"/>
<path d="M20.1338 27.4932V31H18.083V21.0469H21.9658C22.7132 21.0469 23.3695 21.1836 23.9346 21.457C24.5042 21.7305 24.9417 22.1201 25.2471 22.626C25.5524 23.1273 25.7051 23.6992 25.7051 24.3418C25.7051 25.3171 25.3701 26.0872 24.7002 26.6523C24.0348 27.2129 23.112 27.4932 21.9316 27.4932H20.1338ZM20.1338 25.832H21.9658C22.5081 25.832 22.9206 25.7044 23.2031 25.4492C23.4902 25.194 23.6338 24.8294 23.6338 24.3555C23.6338 23.8678 23.4902 23.4736 23.2031 23.1729C22.916 22.8721 22.5195 22.7171 22.0137 22.708H20.1338V25.832ZM29.1709 29.3525H33.5254V31H27.1201V21.0469H29.1709V29.3525ZM40.4639 28.9492H36.8682L36.1846 31H34.0039L37.709 21.0469H39.6094L43.335 31H41.1543L40.4639 28.9492ZM37.4219 27.2881H39.9102L38.6592 23.5625L37.4219 27.2881ZM46.6709 25.5312L48.7422 21.0469H50.9844L47.7168 27.3906V31H45.6318V27.3906L42.3643 21.0469H44.6133L46.6709 25.5312ZM58.0596 21.0469L60.6162 28.2656L63.1592 21.0469H65.8525V31H63.7949V28.2793L64 23.583L61.3135 31H59.9053L57.2256 23.5898L57.4307 28.2793V31H55.3799V21.0469H58.0596ZM73.3857 28.9492H69.79L69.1064 31H66.9258L70.6309 21.0469H72.5312L76.2568 31H74.0762L73.3857 28.9492ZM70.3438 27.2881H72.832L71.5811 23.5625L70.3438 27.2881ZM80.8711 27.3564H79.2373V31H77.1865V21.0469H80.8848C82.0605 21.0469 82.9674 21.3089 83.6055 21.833C84.2435 22.3571 84.5625 23.0977 84.5625 24.0547C84.5625 24.7337 84.4144 25.3011 84.1182 25.7568C83.8265 26.208 83.3822 26.568 82.7852 26.8369L84.9385 30.9043V31H82.7373L80.8711 27.3564ZM79.2373 25.6953H80.8916C81.4066 25.6953 81.8053 25.5654 82.0879 25.3057C82.3704 25.0413 82.5117 24.679 82.5117 24.2188C82.5117 23.7493 82.3773 23.3802 82.1084 23.1113C81.8441 22.8424 81.4362 22.708 80.8848 22.708H79.2373V25.6953ZM89.2451 27.0078L88.1787 28.1562V31H86.1279V21.0469H88.1787V25.5586L89.0811 24.3213L91.6172 21.0469H94.1396L90.6055 25.4697L94.2422 31H91.8018L89.2451 27.0078ZM101.003 26.6865H97.0654V29.3525H101.687V31H95.0146V21.0469H101.673V22.708H97.0654V25.0801H101.003V26.6865ZM110.519 22.708H107.47V31H105.419V22.708H102.411V21.0469H110.519V22.708Z" fill="white"/>
<path d="M128 0H188V50H128V0Z" fill="#009CC2"/>
<path fill-rule="evenodd" clip-rule="evenodd" d="M155.647 18.1722C155.363 18.1722 155.134 17.9334 155.134 17.6548C155.134 17.3763 155.363 17.1375 155.647 17.1375C155.944 17.1375 156.173 17.3763 156.173 17.6548C156.173 17.9334 155.944 18.1722 155.647 18.1722ZM161.344 18.1722C161.047 18.1722 160.817 17.9334 160.817 17.6548C160.817 17.3763 161.047 17.1375 161.344 17.1375C161.627 17.1375 161.857 17.3763 161.857 17.6548C161.857 17.9334 161.627 18.1722 161.344 18.1722ZM150.381 20.6129C149.612 20.6129 148.991 21.2232 148.991 21.9659V27.6698C148.991 28.426 149.612 29.0362 150.381 29.0362C151.151 29.0362 151.758 28.426 151.758 27.6698V21.9659C151.758 21.2232 151.137 20.6129 150.381 20.6129ZM164.692 20.8649H152.298V29.6995C152.298 30.5086 152.96 31.1586 153.783 31.1586H154.783L154.796 34.1698C154.796 34.9259 155.417 35.5362 156.173 35.5362C156.943 35.5362 157.564 34.9259 157.564 34.1698V31.1586H159.427V34.1698C159.427 34.9259 160.048 35.5362 160.817 35.5362C161.587 35.5362 162.208 34.9259 162.208 34.1698V31.1586H163.22C164.031 31.1586 164.692 30.5086 164.692 29.6995V20.8649ZM161.56 15.4926L162.518 13.7549C162.572 13.6621 162.545 13.5427 162.451 13.4897C162.356 13.4497 162.235 13.4763 162.181 13.5692L161.209 15.3202C160.385 14.9619 159.467 14.7631 158.495 14.7631C157.523 14.7631 156.605 14.9619 155.782 15.3202L154.81 13.5692C154.756 13.4763 154.634 13.4497 154.54 13.4897C154.445 13.5427 154.418 13.6621 154.472 13.7549L155.431 15.4926C153.527 16.4478 152.244 18.2783 152.244 20.3873H164.733C164.733 18.2783 163.45 16.4478 161.56 15.4926ZM168 21.9659C168 21.2098 167.379 20.6129 166.609 20.6129C165.853 20.6129 165.232 21.2098 165.232 21.9659V27.6698C165.232 28.426 165.853 29.0362 166.609 29.0362C167.379 29.0362 168 28.426 168 27.6698V21.9659Z" fill="white"/>
</svg>
