<svg width="188" height="50" viewBox="0 0 188 50" fill="none" xmlns="http://www.w3.org/2000/svg">
<path d="M0 0H128V50H0V0Z" fill="#00AFDB"/>
<path d="M26 28.9492H22.4043L21.7207 31H19.54L23.2451 21.0469H25.1455L28.8711 31H26.6904L26 28.9492ZM22.958 27.2881H25.4463L24.1953 23.5625L22.958 27.2881ZM31.8516 27.4932V31H29.8008V21.0469H33.6836C34.431 21.0469 35.0872 21.1836 35.6523 21.457C36.222 21.7305 36.6595 22.1201 36.9648 22.626C37.2702 23.1273 37.4229 23.6992 37.4229 24.3418C37.4229 25.3171 37.0879 26.0872 36.418 26.6523C35.7526 27.2129 34.8298 27.4932 33.6494 27.4932H31.8516ZM31.8516 25.832H33.6836C34.2259 25.832 34.6383 25.7044 34.9209 25.4492C35.208 25.194 35.3516 24.8294 35.3516 24.3555C35.3516 23.8678 35.208 23.4736 34.9209 23.1729C34.6338 22.8721 34.2373 22.7171 33.7314 22.708H31.8516V25.832ZM40.8887 27.4932V31H38.8379V21.0469H42.7207C43.4681 21.0469 44.1243 21.1836 44.6895 21.457C45.2591 21.7305 45.6966 22.1201 46.002 22.626C46.3073 23.1273 46.46 23.6992 46.46 24.3418C46.46 25.3171 46.125 26.0872 45.4551 26.6523C44.7897 27.2129 43.8669 27.4932 42.6865 27.4932H40.8887ZM40.8887 25.832H42.7207C43.263 25.832 43.6755 25.7044 43.958 25.4492C44.2451 25.194 44.3887 24.8294 44.3887 24.3555C44.3887 23.8678 44.2451 23.4736 43.958 23.1729C43.6709 22.8721 43.2744 22.7171 42.7686 22.708H40.8887V25.832ZM49.9258 29.3525H54.2803V31H47.875V21.0469H49.9258V29.3525ZM61.4512 26.6865H57.5137V29.3525H62.1348V31H55.4629V21.0469H62.1211V22.708H57.5137V25.0801H61.4512V26.6865ZM71.9854 28.3887C71.9854 28.0013 71.8486 27.7051 71.5752 27.5C71.3018 27.2904 70.8096 27.0716 70.0986 26.8438C69.3877 26.6113 68.8249 26.3835 68.4102 26.1602C67.2799 25.5495 66.7148 24.7269 66.7148 23.6924C66.7148 23.1546 66.8652 22.6761 67.166 22.2568C67.4714 21.833 67.9066 21.5026 68.4717 21.2656C69.0413 21.0286 69.6794 20.9102 70.3857 20.9102C71.0967 20.9102 71.7301 21.04 72.2861 21.2998C72.8421 21.555 73.2728 21.9173 73.5781 22.3867C73.888 22.8561 74.043 23.3893 74.043 23.9863H71.9922C71.9922 23.5306 71.8486 23.1774 71.5615 22.9268C71.2744 22.6715 70.8711 22.5439 70.3516 22.5439C69.8503 22.5439 69.4606 22.651 69.1826 22.8652C68.9046 23.0749 68.7656 23.3529 68.7656 23.6992C68.7656 24.0228 68.9274 24.2939 69.251 24.5127C69.5791 24.7314 70.0599 24.9365 70.6934 25.1279C71.86 25.4788 72.71 25.9141 73.2432 26.4336C73.7764 26.9531 74.043 27.6003 74.043 28.375C74.043 29.2363 73.7171 29.9131 73.0654 30.4053C72.4137 30.8929 71.5365 31.1367 70.4336 31.1367C69.668 31.1367 68.9707 30.9977 68.3418 30.7197C67.7129 30.4372 67.2321 30.0521 66.8994 29.5645C66.5713 29.0768 66.4072 28.5117 66.4072 27.8691H68.4648C68.4648 28.9674 69.1211 29.5166 70.4336 29.5166C70.9212 29.5166 71.3018 29.4186 71.5752 29.2227C71.8486 29.0221 71.9854 28.7441 71.9854 28.3887ZM82.9297 22.708H79.8809V31H77.8301V22.708H74.8223V21.0469H82.9297V22.708ZM92.0898 26.249C92.0898 27.2288 91.9167 28.0879 91.5703 28.8262C91.224 29.5645 90.7272 30.1341 90.0801 30.5352C89.4375 30.9362 88.6992 31.1367 87.8652 31.1367C87.0404 31.1367 86.3044 30.9385 85.6572 30.542C85.0101 30.1455 84.5088 29.5804 84.1533 28.8467C83.7979 28.1084 83.6178 27.2607 83.6133 26.3037V25.8115C83.6133 24.8317 83.7887 23.9704 84.1396 23.2275C84.4951 22.4801 84.9941 21.9082 85.6367 21.5117C86.2839 21.1107 87.0221 20.9102 87.8516 20.9102C88.681 20.9102 89.417 21.1107 90.0596 21.5117C90.7067 21.9082 91.2057 22.4801 91.5566 23.2275C91.9121 23.9704 92.0898 24.8294 92.0898 25.8047V26.249ZM90.0117 25.7979C90.0117 24.7542 89.8249 23.9613 89.4512 23.4189C89.0775 22.8766 88.5443 22.6055 87.8516 22.6055C87.1634 22.6055 86.6325 22.8743 86.2588 23.4121C85.8851 23.9453 85.696 24.7292 85.6914 25.7637V26.249C85.6914 27.2653 85.8783 28.0537 86.252 28.6143C86.6257 29.1748 87.1634 29.4551 87.8652 29.4551C88.5534 29.4551 89.082 29.1862 89.4512 28.6484C89.8203 28.1061 90.0072 27.3177 90.0117 26.2832V25.7979ZM97.2646 27.3564H95.6309V31H93.5801V21.0469H97.2783C98.4541 21.0469 99.361 21.3089 99.999 21.833C100.637 22.3571 100.956 23.0977 100.956 24.0547C100.956 24.7337 100.808 25.3011 100.512 25.7568C100.22 26.208 99.7757 26.568 99.1787 26.8369L101.332 30.9043V31H99.1309L97.2646 27.3564ZM95.6309 25.6953H97.2852C97.8001 25.6953 98.1989 25.5654 98.4814 25.3057C98.764 25.0413 98.9053 24.679 98.9053 24.2188C98.9053 23.7493 98.7708 23.3802 98.502 23.1113C98.2376 22.8424 97.8298 22.708 97.2783 22.708H95.6309V25.6953ZM108.51 26.6865H104.572V29.3525H109.193V31H102.521V21.0469H109.18V22.708H104.572V25.0801H108.51V26.6865Z" fill="white"/>
<path d="M128 0H188V50H128V0Z" fill="#009CC2"/>
<path fill-rule="evenodd" clip-rule="evenodd" d="M166.482 29.0825C165.805 28.8852 165.198 28.4244 164.67 27.7002C164.143 26.9762 163.879 26.1535 163.879 25.2539C163.879 24.4203 164.132 23.6632 164.625 22.983C164.9 22.5992 165.335 22.1713 165.931 21.6886C165.542 21.2278 165.14 20.8549 164.739 20.5916C164.028 20.1198 163.214 19.8786 162.297 19.8786C161.736 19.8786 161.071 20.0101 160.314 20.2515C159.557 20.5038 159.007 20.6244 158.675 20.6244C158.411 20.6244 157.884 20.5147 157.093 20.2953C156.29 20.076 155.625 19.9663 155.063 19.9663C153.745 19.9663 152.667 20.4929 151.808 21.5459C150.948 22.6101 150.512 23.9704 150.512 25.6489C150.512 27.4479 151.085 29.2801 152.197 31.1668C153.332 33.0538 154.467 34.0082 155.648 34.0082C156.026 34.0082 156.531 33.8876 157.161 33.6353C157.78 33.3939 158.331 33.2731 158.789 33.2731C159.259 33.2731 159.844 33.3828 160.52 33.6242C161.208 33.8547 161.736 33.9753 162.125 33.9753C163.1 33.9753 164.086 33.2622 165.072 31.8252C165.737 30.8707 166.195 29.9492 166.482 29.0825ZM162.171 16.2144C162.171 16.1377 162.16 16.0718 162.16 15.995C162.148 15.9292 162.125 15.8524 162.102 15.7537C160.773 16.0498 159.81 16.5875 159.236 17.3774C158.663 18.1672 158.365 19.1106 158.342 20.1966C158.881 20.1527 159.271 20.0869 159.534 20.0101C159.947 19.8786 160.36 19.6152 160.773 19.2203C161.254 18.7595 161.61 18.2549 161.839 17.7064C162.057 17.1689 162.171 16.6643 162.171 16.2144Z" fill="white"/>
</svg>
